# xmcd
#
# Track frame offsets:
#	150
#	3475
#	9090
#	32397
#	61642
#	90897
#	126517
#	146110
#	182152
#	200915
#	220695
#	249817
#
# Disc length: 3402 seconds
#
# Revision: 2
# Processed by: cddbd v1.4PL0 Copyright (c) Steve Scherf et al.
# Submitted via: audiograbber 1.80.04
#
DISCID=940d480c
DTITLE=Simeon Ten Holt - Lemniscaat
DYEAR=1900
DGENRE=Classical
TTITLE0=ambiance
TTITLE1=refrain
TTITLE2=episode I
TTITLE3=episode II
TTITLE4=episode III
TTITLE5=episode IV
TTITLE6=episode V
TTITLE7=episode VI a
TTITLE8=episode VI b and c
TTITLE9=episode VII
TTITLE10=episode VIII
TTITLE11=refrain
EXTD=
EXTT0=
EXTT1=
EXTT2=
EXTT3=
EXTT4=
EXTT5=
EXTT6=
EXTT7=
EXTT8=
EXTT9=
EXTT10=
EXTT11=
PLAYORDER=
